<?xml version="1.0" encoding="utf-8"?>
<!-- Generator: Adobe Illustrator 24.2.0, SVG Export Plug-In . SVG Version: 6.00 Build 0)  -->
<svg version="1.1" id="Layer_1" xmlns="http://www.w3.org/2000/svg" xmlns:xlink="http://www.w3.org/1999/xlink" x="0px" y="0px"
	 viewBox="0 0 512 512" style="enable-background:new 0 0 512 512;" xml:space="preserve">
<style type="text/css">
	.st0{fill:#3C3C3C;}
</style>
<g>
	<g>
		<g>
			<path class="st0" d="M218.7,242.9c8.7-4.4,15.3-9.3,19.9-14.6c8-9.5,12-22.1,12-37.8c0-15.2-4-28.2-11.9-39.2
				c-13.3-17.8-35.7-26.9-67.4-27.4H45.6v256.5h117.2c13.2,0,25.4-1.1,36.7-3.4c11.3-2.3,21.1-6.6,29.4-12.9
				c7.4-5.4,13.5-12.2,18.4-20.2c7.7-12,11.6-25.7,11.6-40.9c0-14.7-3.4-27.3-10.1-37.6C242,255.2,232,247.7,218.7,242.9z
				 M97.5,168.6h56.6c12.4,0,22.7,1.3,30.7,4c9.3,3.9,14,11.7,14,23.7c0,10.8-3.6,18.3-10.6,22.5c-7.1,4.2-16.3,6.4-27.5,6.4H97.5
				V168.6z M187,331.5c-6.3,3-15.1,4.5-26.4,4.5H97.5v-68.4h64c11.2,0.1,19.8,1.6,26,4.3c11,5,16.5,14.1,16.5,27.5
				C204,315.2,198.4,325.9,187,331.5z"/>
			<rect x="314.5" y="136" class="st0" width="111.4" height="31.9"/>
			<path class="st0" d="M464.7,262c-2.3-14.9-7.4-27.9-15.4-39.2c-8.7-12.8-19.8-22.1-33.2-28.1c-13.4-5.9-28.5-8.9-45.2-8.9
				c-28.2,0-51,8.8-68.7,26.3c-17.6,17.5-26.5,42.8-26.5,75.6c0,35.1,9.8,60.4,29.4,75.9c19.5,15.6,42.1,23.3,67.7,23.3
				c31,0,55.1-9.2,72.4-27.6c11-11.6,17.3-23.1,18.6-34.3h-51.3c-3,5.5-6.4,9.9-10.4,13c-7.2,5.8-16.5,8.7-27.9,8.7
				c-10.9,0-20.1-2.4-27.7-7.2c-12.7-7.6-19.3-21-20.1-40h140.1C466.5,283.2,466,270.6,464.7,262z M327.5,266.9
				c1.8-12.3,6.3-22.1,13.4-29.4c7.1-7.2,17.1-10.8,30-10.9c11.9,0,21.8,3.4,29.9,10.2c8,6.9,12.5,16.8,13.4,30H327.5z"/>
		</g>
	</g>
</g>
</svg>
