<?xml version="1.0" encoding="utf-8"?>
<!-- Generator: Adobe Illustrator 16.0.0, SVG Export Plug-In . SVG Version: 6.00 Build 0)  -->
<!DOCTYPE svg PUBLIC "-//W3C//DTD SVG 1.1//EN" "http://www.w3.org/Graphics/SVG/1.1/DTD/svg11.dtd">
<svg version="1.1" id="Layer_1" xmlns="http://www.w3.org/2000/svg" xmlns:xlink="http://www.w3.org/1999/xlink" x="0px" y="0px"
	 width="20px" height="15.191px" viewBox="0 0 20 15.191" enable-background="new 0 0 20 15.191" xml:space="preserve">
<path fill="#F24170" d="M17.626,0H2.374C1.065,0,0,1.023,0,2.28v10.632c0,1.257,1.065,2.279,2.374,2.279h15.253
	c1.309,0,2.374-1.022,2.374-2.279V2.28C20,1.023,18.936,0,17.626,0z M17.626,13.179H2.374c-0.192,0-0.361-0.125-0.361-0.268V3.686
	L8.911,9.51c0.141,0.12,0.321,0.187,0.506,0.187h1.165c0.186,0,0.365-0.065,0.506-0.187l6.898-5.823v9.227
	C17.988,13.054,17.818,13.179,17.626,13.179z M10,7.696L3.291,2.014H16.71L10,7.696z"/>
</svg>
