<?xml version="1.0" encoding="utf-8"?>
<!-- Generator: Adobe Illustrator 16.0.0, SVG Export Plug-In . SVG Version: 6.00 Build 0)  -->
<!DOCTYPE svg PUBLIC "-//W3C//DTD SVG 1.1//EN" "http://www.w3.org/Graphics/SVG/1.1/DTD/svg11.dtd">
<svg version="1.1" id="Layer_1" xmlns="http://www.w3.org/2000/svg" xmlns:xlink="http://www.w3.org/1999/xlink" x="0px" y="0px"
	 width="20px" height="20px" viewBox="0 0 20 20" enable-background="new 0 0 20 20" xml:space="preserve">
<path fill="#FFFFFF" d="M18.191,0H1.809C0.81,0,0,0.81,0,1.809v16.382C0,19.189,0.81,20,1.809,20h16.382
	C19.189,20,20,19.189,20,18.191V1.809C20,0.81,19.189,0,18.191,0z M6.189,17.27c0,0.291-0.236,0.526-0.526,0.526H3.421
	c-0.291,0-0.526-0.235-0.526-0.526V7.875c0-0.291,0.235-0.526,0.526-0.526h2.242c0.291,0,0.526,0.235,0.526,0.526V17.27z
	 M4.542,6.463c-1.176,0-2.129-0.953-2.129-2.129s0.954-2.129,2.129-2.129s2.129,0.953,2.129,2.129S5.718,6.463,4.542,6.463z
	 M17.9,17.312c0,0.267-0.215,0.482-0.483,0.482h-2.405c-0.267,0-0.484-0.217-0.484-0.482v-4.407c0-0.658,0.193-2.881-1.717-2.881
	c-1.482,0-1.783,1.521-1.844,2.205v5.084c0,0.267-0.217,0.482-0.484,0.482H8.157c-0.267,0-0.484-0.217-0.484-0.482v-9.48
	c0-0.267,0.217-0.483,0.484-0.483h2.326c0.267,0,0.484,0.217,0.484,0.483v0.819c0.551-0.824,1.367-1.461,3.105-1.461
	c3.851,0,3.828,3.599,3.828,5.574V17.312L17.9,17.312z"/>
</svg>
